<svg aria-hidden="true" style="position: absolute; width: 0; height: 0; overflow: hidden;" version="1.1" xmlns="http://www.w3.org/2000/svg" xmlns:xlink="http://www.w3.org/1999/xlink">
<defs>
<symbol id="icon-Group-1236" viewBox="0 0 32 32">
<path fill="#2fab73" style="fill: var(--color1, #2fab73)" d="M13.768 22.118c-0.168 0-0.334-0.032-0.49-0.097s-0.296-0.158-0.415-0.277l-5.43-5.431c-0.122-0.118-0.22-0.259-0.287-0.415s-0.103-0.324-0.104-0.494 0.031-0.339 0.095-0.496c0.064-0.157 0.159-0.3 0.279-0.421s0.263-0.215 0.42-0.28c0.157-0.064 0.326-0.097 0.496-0.096s0.338 0.037 0.494 0.104 0.298 0.164 0.416 0.287l4.525 4.525 8.147-8.145c0.24-0.24 0.566-0.375 0.905-0.375s0.665 0.135 0.905 0.375c0.24 0.24 0.375 0.566 0.375 0.905s-0.135 0.665-0.375 0.905l-9.052 9.052c-0.119 0.119-0.26 0.213-0.415 0.277s-0.322 0.097-0.49 0.097z"></path>
</symbol>
<symbol id="icon-Group-1120" viewBox="0 0 32 32">
<path fill="#2fab73" style="fill: var(--color1, #2fab73)" d="M15.516 3.263c-7.058 0-12.8 5.742-12.8 12.8s5.742 12.8 12.8 12.8c7.058 0 12.8-5.742 12.8-12.8s-5.742-12.8-12.8-12.8zM12.957 21.712l-3.847-3.839c-0.5-0.499-0.501-1.309-0.002-1.809s1.31-0.502 1.81-0.002l2.037 2.033 5.871-5.871c0.5-0.5 1.31-0.5 1.81 0s0.5 1.31 0 1.81l-7.679 7.679z"></path>
</symbol>
<symbol id="icon-left" viewBox="0 0 31 32">
<path fill="none" stroke="#f53838" style="stroke: var(--color2, #f53838)" stroke-linejoin="miter" stroke-linecap="butt" stroke-miterlimit="4" stroke-width="1.0492" d="M30.951 15.87c0 8.402-6.811 15.213-15.213 15.213s-15.213-6.811-15.213-15.213c0-8.402 6.811-15.213 15.213-15.213s15.213 6.811 15.213 15.213z"></path>
<path fill="#f53838" style="fill: var(--color2, #f53838)" d="M20.328 15.215h-7.777l2.38-2.859c0.111-0.134 0.165-0.307 0.149-0.48s-0.1-0.333-0.234-0.445c-0.134-0.111-0.307-0.165-0.48-0.149s-0.333 0.1-0.445 0.234l-3.279 3.934c-0.022 0.031-0.042 0.064-0.059 0.098 0 0.033 0 0.052-0.046 0.085-0.030 0.075-0.045 0.155-0.046 0.236 0.001 0.081 0.016 0.161 0.046 0.236 0 0.033 0 0.052 0.046 0.085 0.017 0.034 0.037 0.067 0.059 0.098l3.279 3.934c0.062 0.074 0.139 0.134 0.226 0.174s0.182 0.062 0.279 0.062c0.153 0 0.302-0.053 0.42-0.151 0.066-0.055 0.121-0.123 0.162-0.199s0.065-0.16 0.073-0.246-0.001-0.172-0.027-0.255c-0.026-0.082-0.067-0.159-0.122-0.225l-2.38-2.859h7.777c0.174 0 0.341-0.069 0.464-0.192s0.192-0.29 0.192-0.464c0-0.174-0.069-0.341-0.192-0.464s-0.29-0.192-0.464-0.192z"></path>
</symbol>
<symbol id="icon-right" viewBox="0 0 32 32">
<path fill="#f53838" style="fill: var(--color2, #f53838)" d="M22.336 12.94c0 3.558-2.885 6.443-6.443 6.443s-6.443-2.885-6.443-6.443c0-3.558 2.885-6.443 6.443-6.443s6.443 2.885 6.443 6.443z"></path>
<path fill="none" stroke="#f53838" style="stroke: var(--color2, #f53838)" stroke-linejoin="miter" stroke-linecap="butt" stroke-miterlimit="4" stroke-width="0.4295" d="M22.121 12.94c0 3.44-2.788 6.228-6.228 6.228s-6.228-2.788-6.228-6.228c0-3.44 2.788-6.228 6.228-6.228s6.228 2.788 6.228 6.228z"></path>
<path fill="#fff" style="fill: var(--color3, #fff)" d="M14.013 12.672h3.184l-0.974-1.17c-0.046-0.055-0.067-0.126-0.061-0.197s0.041-0.136 0.096-0.182c0.055-0.046 0.125-0.067 0.197-0.061s0.136 0.041 0.182 0.096l1.342 1.611c0.009 0.013 0.017 0.026 0.024 0.040 0 0.013 0 0.021 0.019 0.035 0.012 0.031 0.019 0.064 0.019 0.097s-0.007 0.066-0.019 0.097c0 0.013 0 0.021-0.019 0.035-0.007 0.014-0.015 0.027-0.024 0.040l-1.342 1.611c-0.025 0.030-0.057 0.055-0.093 0.071s-0.075 0.025-0.114 0.025c-0.063 0-0.123-0.022-0.172-0.062-0.027-0.023-0.050-0.050-0.066-0.081s-0.027-0.065-0.030-0.101c-0.003-0.035 0-0.071 0.011-0.104s0.027-0.065 0.050-0.092l0.974-1.17h-3.184c-0.071 0-0.139-0.028-0.19-0.079s-0.079-0.119-0.079-0.19c0-0.071 0.028-0.139 0.079-0.19s0.119-0.079 0.19-0.079z"></path>
</symbol>
<symbol id="icon-Instagram" viewBox="0 0 32 32">
<path fill="#f53838" style="fill: var(--color2, #f53838)" d="M23.346 10.087c0 4.182-3.39 7.572-7.572 7.572s-7.572-3.39-7.572-7.572c0-4.182 3.39-7.572 7.572-7.572s7.572 3.39 7.572 7.572z"></path>
<path fill="#fff" style="fill: var(--color3, #fff)" d="M18.141 10.087c0 0.628-0.249 1.229-0.693 1.673s-1.046 0.693-1.673 0.693c-0.628 0-1.229-0.249-1.673-0.693s-0.693-1.046-0.693-1.673c0-0.135 0.014-0.267 0.039-0.394h-0.827v3.153c0 0.219 0.177 0.397 0.397 0.397h5.517c0.105-0 0.206-0.042 0.28-0.117s0.116-0.175 0.116-0.28v-3.153h-0.827c0.024 0.128 0.039 0.259 0.039 0.394zM15.775 11.665c0.207-0 0.412-0.041 0.604-0.12s0.365-0.196 0.512-0.342c0.146-0.147 0.263-0.321 0.342-0.512s0.12-0.397 0.12-0.604c-0-0.207-0.041-0.412-0.12-0.604s-0.196-0.365-0.342-0.512c-0.147-0.146-0.321-0.263-0.512-0.342s-0.397-0.12-0.604-0.12c-0.418 0-0.82 0.166-1.116 0.462s-0.462 0.697-0.462 1.116 0.166 0.82 0.462 1.116c0.296 0.296 0.697 0.462 1.116 0.462zM17.668 8.431h0.946c0.063 0 0.123-0.025 0.168-0.069s0.070-0.105 0.070-0.167v-0.946c0-0.063-0.025-0.123-0.070-0.168s-0.105-0.069-0.168-0.069h-0.946c-0.063 0-0.123 0.025-0.168 0.069s-0.070 0.105-0.070 0.168v0.946c0.001 0.13 0.107 0.237 0.237 0.237zM15.775 2.515c-2.008 0-3.934 0.798-5.354 2.218s-2.218 3.346-2.218 5.354c0 2.008 0.798 3.934 2.218 5.354s3.346 2.218 5.354 2.218c0.994 0 1.979-0.196 2.898-0.576s1.753-0.938 2.457-1.641c0.703-0.703 1.261-1.538 1.641-2.456s0.576-1.903 0.576-2.898-0.196-1.979-0.576-2.898c-0.381-0.919-0.938-1.753-1.641-2.456s-1.538-1.261-2.457-1.641c-0.919-0.381-1.903-0.576-2.898-0.576zM19.718 13.154c0 0.482-0.394 0.876-0.876 0.876h-6.135c-0.482 0-0.876-0.394-0.876-0.876v-6.135c0-0.482 0.394-0.876 0.876-0.876h6.135c0.482 0 0.876 0.394 0.876 0.876v6.135z"></path>
</symbol>
<symbol id="icon-Facebook" viewBox="0 0 32 32">
<path fill="#f53838" style="fill: var(--color2, #f53838)" d="M23.256 10.087c0 4.182-3.39 7.572-7.572 7.572s-7.572-3.39-7.572-7.572c0-4.182 3.39-7.572 7.572-7.572s7.572 3.39 7.572 7.572z"></path>
<path fill="#fff" style="fill: var(--color3, #fff)" d="M15.684 2.515c-4.182 0-7.572 3.39-7.572 7.572s3.39 7.572 7.572 7.572c4.182 0 7.572-3.39 7.572-7.572s-3.39-7.572-7.572-7.572zM17.478 7.748h-1.138c-0.135 0-0.285 0.177-0.285 0.413v0.822h1.424l-0.215 1.172h-1.208v3.518h-1.343v-3.518h-1.219v-1.172h1.219v-0.689c0-0.989 0.686-1.793 1.628-1.793h1.138v1.247z"></path>
</symbol>
<symbol id="icon-Twitter" viewBox="0 0 32 32">
<path fill="#f53838" style="fill: var(--color2, #f53838)" d="M23.527 10.087c0 4.182-3.39 7.572-7.572 7.572s-7.572-3.39-7.572-7.572c0-4.182 3.39-7.572 7.572-7.572s7.572 3.39 7.572 7.572z"></path>
<path fill="#fff" style="fill: var(--color3, #fff)" d="M15.955 2.515c-4.182 0-7.572 3.39-7.572 7.572s3.39 7.572 7.572 7.572c4.182 0 7.572-3.39 7.572-7.572s-3.39-7.572-7.572-7.572zM19.035 8.718c0.003 0.065 0.004 0.129 0.004 0.192 0 1.972-1.499 4.244-4.243 4.244-0.811 0.001-1.604-0.231-2.286-0.67 0.116 0.014 0.235 0.020 0.356 0.020 0.699 0 1.342-0.237 1.852-0.638-0.311-0.006-0.612-0.109-0.862-0.295s-0.435-0.444-0.531-0.74c0.223 0.042 0.453 0.034 0.673-0.026-0.338-0.068-0.641-0.251-0.859-0.518s-0.337-0.6-0.337-0.945v-0.018c0.201 0.111 0.431 0.179 0.676 0.187-0.316-0.211-0.54-0.534-0.626-0.905s-0.027-0.759 0.165-1.088c0.375 0.461 0.842 0.837 1.371 1.106s1.109 0.423 1.702 0.453c-0.075-0.32-0.043-0.656 0.092-0.956s0.366-0.546 0.655-0.701c0.29-0.155 0.623-0.21 0.947-0.157s0.622 0.213 0.846 0.453c0.334-0.066 0.654-0.189 0.946-0.362-0.111 0.346-0.344 0.639-0.655 0.826 0.296-0.036 0.584-0.115 0.857-0.236-0.2 0.3-0.452 0.561-0.744 0.772z"></path>
</symbol>
<symbol id="icon-user" viewBox="0 0 31 32">
<path fill="#ffecec" style="fill: var(--color4, #ffecec)" d="M15.714 0.028c8.679 0 15.714 7.036 15.714 15.714s-7.036 15.714-15.714 15.714c-8.679 0-15.714-7.036-15.714-15.714s7.036-15.714 15.714-15.714z"></path>
<path fill="#f53838" style="fill: var(--color2, #f53838)" d="M15.714 15.057c0.546 0 1.069-0.217 1.455-0.603s0.602-0.909 0.602-1.455-0.217-1.069-0.602-1.455c-0.386-0.386-0.909-0.602-1.455-0.602s-1.069 0.217-1.455 0.602c-0.386 0.386-0.602 0.909-0.602 1.455s0.217 1.069 0.602 1.455c0.386 0.386 0.909 0.602 1.455 0.602zM12.799 21.228c-1.041 0-1.918-0.875-1.52-1.837 0.241-0.582 0.595-1.111 1.040-1.557s0.975-0.799 1.557-1.041c0.582-0.241 1.207-0.365 1.837-0.365s1.255 0.124 1.837 0.365c0.582 0.241 1.112 0.595 1.557 1.041s0.799 0.975 1.041 1.557c0.398 0.962-0.479 1.837-1.52 1.837h-5.83z"></path>
</symbol>
<symbol id="icon-location" viewBox="0 0 32 32">
<path fill="#ffecec" style="fill: var(--color4, #ffecec)" d="M16 0.028c8.679 0 15.714 7.036 15.714 15.714s-7.036 15.714-15.714 15.714c-8.679 0-15.714-7.036-15.714-15.714s7.036-15.714 15.714-15.714z"></path>
<path fill="#f53838" style="fill: var(--color2, #f53838)" d="M20 14.028c0-0.525-0.104-1.045-0.304-1.531s-0.496-0.926-0.867-1.298c-0.371-0.371-0.812-0.666-1.298-0.867s-1.005-0.304-1.531-0.304-1.045 0.104-1.531 0.305c-0.485 0.201-0.926 0.496-1.298 0.867s-0.666 0.812-0.867 1.298c-0.201 0.485-0.304 1.005-0.304 1.531 0 0.793 0.234 1.53 0.631 2.151h-0.005c1.349 2.111 3.373 5.277 3.373 5.277l3.373-5.277h-0.004c0.412-0.642 0.631-1.389 0.631-2.151zM16 15.742c-0.455 0-0.891-0.181-1.212-0.502s-0.502-0.758-0.502-1.212c0-0.455 0.181-0.891 0.502-1.212s0.758-0.502 1.212-0.502c0.455 0 0.891 0.181 1.212 0.502s0.502 0.758 0.502 1.212c0 0.455-0.181 0.891-0.502 1.212s-0.758 0.502-1.212 0.502z"></path>
</symbol>
<symbol id="icon-Server" viewBox="0 0 31 32">
<path fill="#ffecec" style="fill: var(--color4, #ffecec)" d="M15.714 0.028c8.679 0 15.714 7.036 15.714 15.714s-7.036 15.714-15.714 15.714c-8.679 0-15.714-7.036-15.714-15.714s7.036-15.714 15.714-15.714z"></path>
<path fill="#f53838" style="fill: var(--color2, #f53838)" d="M20.286 10.6h-9.143c-0.303 0-0.594 0.12-0.808 0.335s-0.335 0.505-0.335 0.808v2.286c0 0.303 0.12 0.594 0.335 0.808s0.505 0.335 0.808 0.335h9.143c0.303 0 0.594-0.12 0.808-0.335s0.335-0.505 0.335-0.808v-2.286c0-0.303-0.12-0.594-0.335-0.808s-0.505-0.335-0.808-0.335zM17.429 12.885c0 0.316-0.256 0.571-0.571 0.571s-0.571-0.256-0.571-0.571c0-0.316 0.256-0.571 0.571-0.571s0.571 0.256 0.571 0.571zM19.714 12.885c0 0.316-0.256 0.571-0.571 0.571s-0.571-0.256-0.571-0.571c0-0.316 0.256-0.571 0.571-0.571s0.571 0.256 0.571 0.571zM20.286 16.314h-9.143c-0.303 0-0.594 0.12-0.808 0.335s-0.335 0.505-0.335 0.808v2.286c0 0.303 0.12 0.594 0.335 0.808s0.505 0.335 0.808 0.335h9.143c0.303 0 0.594-0.12 0.808-0.335s0.335-0.505 0.335-0.808v-2.286c0-0.303-0.12-0.594-0.335-0.808s-0.505-0.335-0.808-0.335zM17.429 18.6c0 0.316-0.256 0.571-0.571 0.571s-0.571-0.256-0.571-0.571c0-0.316 0.256-0.571 0.571-0.571s0.571 0.256 0.571 0.571zM19.714 18.6c0 0.316-0.256 0.571-0.571 0.571s-0.571-0.256-0.571-0.571c0-0.316 0.256-0.571 0.571-0.571s0.571 0.256 0.571 0.571z"></path>
</symbol>
</defs>
</svg>


